<svg width="358" height="63" viewBox="0 0 358 63" fill="none" xmlns="http://www.w3.org/2000/svg">
<path d="M357.303 1.57501V58.275H348.37V1.57501H357.303Z" fill="#DE6913"/>
<path d="M338.034 1.57501V58.275H329.101V1.57501H338.034Z" fill="#DE6913"/>
<path d="M310.275 50.2647V31.217C310.275 29.7897 310.016 28.5592 309.5 27.5256C308.983 26.492 308.195 25.6922 307.137 25.1262C306.104 24.5602 304.799 24.2772 303.224 24.2772C301.772 24.2772 300.517 24.5233 299.459 25.0154C298.401 25.5076 297.576 26.1721 296.986 27.0088C296.395 27.8455 296.1 28.793 296.1 29.8512H287.24C287.24 28.2762 287.622 26.7504 288.385 25.2738C289.148 23.7973 290.255 22.4807 291.707 21.324C293.159 20.1674 294.894 19.2569 296.912 18.5924C298.93 17.9279 301.194 17.5957 303.704 17.5957C306.706 17.5957 309.364 18.1002 311.678 19.1092C314.015 20.1182 315.849 21.644 317.178 23.6865C318.531 25.7045 319.208 28.2393 319.208 31.2908V49.0465C319.208 50.8676 319.331 52.5041 319.577 53.9561C319.848 55.3834 320.229 56.6262 320.721 57.6844V58.275H311.604C311.185 57.3153 310.853 56.0971 310.607 54.6205C310.386 53.1194 310.275 51.6674 310.275 50.2647ZM311.567 33.9856L311.641 39.4858H305.254C303.606 39.4858 302.154 39.6457 300.899 39.9656C299.644 40.261 298.598 40.7039 297.761 41.2945C296.924 41.8852 296.297 42.5988 295.878 43.4356C295.46 44.2723 295.251 45.2197 295.251 46.2779C295.251 47.3361 295.497 48.3082 295.989 49.1942C296.481 50.0555 297.195 50.7322 298.13 51.2244C299.09 51.7166 300.246 51.9627 301.6 51.9627C303.421 51.9627 305.008 51.5936 306.362 50.8553C307.74 50.0924 308.823 49.1695 309.61 48.0867C310.398 46.9793 310.816 45.9334 310.865 44.949L313.745 48.8988C313.449 49.9078 312.945 50.9906 312.231 52.1473C311.518 53.3039 310.582 54.4113 309.426 55.4695C308.294 56.5031 306.928 57.3522 305.328 58.0166C303.753 58.6811 301.932 59.0133 299.865 59.0133C297.256 59.0133 294.931 58.4965 292.888 57.4629C290.846 56.4047 289.246 54.9897 288.089 53.2178C286.933 51.4213 286.354 49.391 286.354 47.127C286.354 45.0106 286.748 43.1403 287.536 41.516C288.348 39.8672 289.529 38.4891 291.079 37.3817C292.654 36.2742 294.574 35.4375 296.838 34.8715C299.102 34.2809 301.686 33.9856 304.59 33.9856H311.567Z" fill="#DE6913"/>
<path d="M270.998 40.7777H280.226C279.931 44.2969 278.947 47.4346 277.273 50.1908C275.6 52.9225 273.25 55.0758 270.223 56.6508C267.196 58.2258 263.517 59.0133 259.185 59.0133C255.863 59.0133 252.873 58.4227 250.215 57.2414C247.557 56.0356 245.281 54.3375 243.386 52.1473C241.491 49.9324 240.039 47.2623 239.03 44.1369C238.046 41.0115 237.554 37.517 237.554 33.6533V29.1867C237.554 25.3231 238.058 21.8285 239.067 18.7031C240.101 15.5777 241.577 12.9076 243.497 10.6928C245.416 8.45333 247.717 6.74298 250.4 5.56173C253.107 4.38048 256.146 3.78986 259.518 3.78986C263.8 3.78986 267.417 4.57736 270.37 6.15236C273.323 7.72736 275.612 9.90529 277.236 12.6861C278.885 15.467 279.894 18.6539 280.263 22.2469H271.035C270.789 19.9336 270.247 17.9526 269.411 16.3037C268.598 14.6549 267.393 13.3998 265.793 12.5385C264.193 11.6526 262.102 11.2096 259.518 11.2096C257.401 11.2096 255.555 11.6033 253.98 12.3908C252.405 13.1783 251.089 14.335 250.031 15.8608C248.972 17.3865 248.173 19.2692 247.631 21.5086C247.114 23.7235 246.856 26.2582 246.856 29.1129V33.6533C246.856 36.3604 247.09 38.8213 247.557 41.0361C248.05 43.2264 248.788 45.109 249.772 46.684C250.781 48.259 252.061 49.4772 253.611 50.3385C255.162 51.1998 257.02 51.6305 259.185 51.6305C261.819 51.6305 263.947 51.2121 265.571 50.3754C267.22 49.5387 268.463 48.3205 269.3 46.7209C270.161 45.0967 270.727 43.1156 270.998 40.7777Z" fill="#DE6913"/>
<path d="M212.674 18.334V24.8309H190.156V18.334H212.674ZM196.653 8.55176H205.549V47.2377C205.549 48.4682 205.722 49.4156 206.066 50.0801C206.435 50.7199 206.94 51.1506 207.58 51.3721C208.22 51.5936 208.97 51.7043 209.831 51.7043C210.447 51.7043 211.037 51.6674 211.603 51.5936C212.169 51.5197 212.625 51.4459 212.969 51.3721L213.006 58.1643C212.268 58.3857 211.406 58.5826 210.422 58.7549C209.462 58.9271 208.355 59.0133 207.1 59.0133C205.057 59.0133 203.248 58.6564 201.673 57.9428C200.098 57.2045 198.868 56.0109 197.982 54.3621C197.096 52.7133 196.653 50.523 196.653 47.7914V8.55176Z" fill="white"/>
<path d="M177.864 47.4592C177.864 46.5733 177.642 45.7735 177.199 45.0598C176.756 44.3215 175.907 43.657 174.652 43.0664C173.422 42.4758 171.601 41.9344 169.189 41.4422C167.072 40.9746 165.128 40.4209 163.356 39.7811C161.609 39.1166 160.108 38.3168 158.853 37.3817C157.598 36.4465 156.626 35.3391 155.937 34.0594C155.248 32.7797 154.903 31.3031 154.903 29.6297C154.903 28.0055 155.26 26.4674 155.974 25.0154C156.687 23.5635 157.709 22.2838 159.037 21.1764C160.366 20.069 161.978 19.1953 163.873 18.5555C165.793 17.9156 167.934 17.5957 170.296 17.5957C173.643 17.5957 176.51 18.1617 178.897 19.2938C181.309 20.4012 183.155 21.9147 184.434 23.8342C185.714 25.7291 186.354 27.8701 186.354 30.2572H177.458C177.458 29.199 177.187 28.2147 176.646 27.3041C176.129 26.369 175.341 25.6184 174.283 25.0524C173.225 24.4617 171.896 24.1664 170.296 24.1664C168.771 24.1664 167.503 24.4125 166.494 24.9047C165.51 25.3723 164.771 25.9875 164.279 26.7504C163.812 27.5133 163.578 28.35 163.578 29.2606C163.578 29.925 163.701 30.5279 163.947 31.0694C164.218 31.5861 164.661 32.066 165.276 32.509C165.891 32.9274 166.728 33.3211 167.786 33.6903C168.869 34.0594 170.222 34.4162 171.847 34.7608C174.898 35.4006 177.519 36.225 179.709 37.234C181.924 38.2184 183.622 39.4981 184.804 41.0731C185.985 42.6235 186.575 44.5922 186.575 46.9793C186.575 48.7512 186.194 50.3754 185.431 51.852C184.693 53.3039 183.61 54.5713 182.183 55.6541C180.755 56.7123 179.045 57.5367 177.052 58.1274C175.083 58.718 172.868 59.0133 170.407 59.0133C166.789 59.0133 163.726 58.3735 161.215 57.0938C158.705 55.7895 156.798 54.1283 155.494 52.1104C154.214 50.0678 153.574 47.9514 153.574 45.7611H162.175C162.274 47.41 162.729 48.7266 163.541 49.711C164.378 50.6707 165.411 51.3721 166.642 51.8151C167.897 52.2334 169.189 52.4426 170.518 52.4426C172.117 52.4426 173.459 52.2334 174.541 51.8151C175.624 51.3721 176.449 50.7815 177.015 50.0432C177.581 49.2803 177.864 48.419 177.864 47.4592Z" fill="white"/>
<path d="M137.221 50.2647V31.217C137.221 29.7897 136.963 28.5592 136.446 27.5256C135.929 26.492 135.142 25.6922 134.083 25.1262C133.05 24.5602 131.746 24.2772 130.171 24.2772C128.719 24.2772 127.463 24.5233 126.405 25.0154C125.347 25.5076 124.523 26.1721 123.932 27.0088C123.341 27.8455 123.046 28.793 123.046 29.8512H114.187C114.187 28.2762 114.568 26.7504 115.331 25.2738C116.094 23.7973 117.201 22.4807 118.653 21.324C120.105 20.1674 121.84 19.2569 123.858 18.5924C125.876 17.9279 128.14 17.5957 130.65 17.5957C133.653 17.5957 136.311 18.1002 138.624 19.1092C140.962 20.1182 142.795 21.644 144.124 23.6865C145.478 25.7045 146.154 28.2393 146.154 31.2908V49.0465C146.154 50.8676 146.277 52.5041 146.523 53.9561C146.794 55.3834 147.176 56.6262 147.668 57.6844V58.275H138.55C138.132 57.3153 137.799 56.0971 137.553 54.6205C137.332 53.1194 137.221 51.6674 137.221 50.2647ZM138.513 33.9856L138.587 39.4858H132.201C130.552 39.4858 129.1 39.6457 127.845 39.9656C126.59 40.261 125.544 40.7039 124.707 41.2945C123.871 41.8852 123.243 42.5988 122.825 43.4356C122.406 44.2723 122.197 45.2197 122.197 46.2779C122.197 47.3361 122.443 48.3082 122.935 49.1942C123.428 50.0555 124.141 50.7322 125.076 51.2244C126.036 51.7166 127.193 51.9627 128.546 51.9627C130.367 51.9627 131.955 51.5936 133.308 50.8553C134.686 50.0924 135.769 49.1695 136.557 48.0867C137.344 46.9793 137.763 45.9334 137.812 44.949L140.691 48.8988C140.396 49.9078 139.891 50.9906 139.178 52.1473C138.464 53.3039 137.529 54.4113 136.372 55.4695C135.24 56.5031 133.874 57.3522 132.275 58.0166C130.7 58.6811 128.879 59.0133 126.811 59.0133C124.203 59.0133 121.877 58.4965 119.835 57.4629C117.792 56.4047 116.192 54.9897 115.036 53.2178C113.879 51.4213 113.301 49.391 113.301 47.127C113.301 45.0106 113.695 43.1403 114.482 41.516C115.294 39.8672 116.475 38.4891 118.026 37.3817C119.601 36.2742 121.52 35.4375 123.784 34.8715C126.048 34.2809 128.632 33.9856 131.536 33.9856H138.513Z" fill="white"/>
<path d="M108.428 50.9291V58.275H81.4441V50.9291H108.428ZM84.0281 4.52814V58.275H74.7627V4.52814H84.0281Z" fill="white"/>
<path fill-rule="evenodd" clip-rule="evenodd" d="M12.6 17.325H0V50.4V63H12.6L50.4 63V50.4L12.6 50.4V17.325Z" fill="white"/>
<path fill-rule="evenodd" clip-rule="evenodd" d="M50.4 12.6V0L0 -2.20305e-06V12.6L37.8 12.6L37.8 25.2L50.4 25.2V12.6Z" fill="#DE6913"/>
</svg>
